<svg width="24" height="25" viewBox="0 0 24 25" fill="none" xmlns="http://www.w3.org/2000/svg">
<path d="M16.97 5.78983C16.9178 5.5709 16.7987 5.37556 16.6307 5.23324C16.4627 5.09093 16.2548 5.00933 16.0384 5.00075C15.822 4.99217 15.6088 5.05707 15.4309 5.18568C15.253 5.31428 15.12 5.49962 15.052 5.71379L11.866 15.6659L8.914 8.74504C8.83363 8.55838 8.70237 8.40044 8.53654 8.29085C8.37071 8.18126 8.17762 8.12484 7.98127 8.12861C7.78491 8.13239 7.59395 8.19618 7.43212 8.31207C7.27028 8.42796 7.14471 8.59084 7.071 8.78045L5.323 13.3346H2V15.418H5.323C6.146 15.418 6.875 14.9034 7.179 14.1086L8.048 11.8461L11.085 18.9659C11.247 19.344 11.606 19.5846 12 19.5846L12.048 19.5836C12.2495 19.5736 12.4433 19.5003 12.604 19.3733C12.7646 19.2463 12.8846 19.0715 12.948 18.8721L15.862 9.76587L16.841 13.8398C16.9484 14.291 17.1978 14.6916 17.5495 14.9777C17.9012 15.2638 18.3348 15.4188 18.781 15.418H22V13.3346H18.78L16.97 5.78983Z" fill="#71FF01"/>
<path d="M17.97 3.9552C17.9178 3.73627 17.7987 3.54094 17.6307 3.39862C17.4627 3.2563 17.2548 3.17471 17.0384 3.16613C16.822 3.15755 16.6088 3.22245 16.4309 3.35105C16.253 3.47965 16.12 3.665 16.052 3.87916L12.866 13.8312L9.914 6.91041C9.83363 6.72376 9.70237 6.56582 9.53654 6.45622C9.37071 6.34663 9.17762 6.29022 8.98127 6.29399C8.78491 6.29776 8.59395 6.36156 8.43212 6.47745C8.27028 6.59334 8.14471 6.75621 8.071 6.94583L6.323 11.5H3V13.5833H6.323C7.146 13.5833 7.875 13.0687 8.179 12.274L9.048 10.0115L12.085 17.1312C12.247 17.5094 12.606 17.75 13 17.75L13.048 17.749C13.2495 17.739 13.4433 17.6657 13.604 17.5387C13.7646 17.4117 13.8846 17.2369 13.948 17.0375L16.862 7.93124L17.841 12.0052C17.9484 12.4564 18.1978 12.857 18.5495 13.1431C18.9012 13.4292 19.3348 13.5842 19.781 13.5833H23V11.5H19.78L17.97 3.9552Z" fill="#FF4D00"/>
<path d="M18.97 5.78983C18.9178 5.5709 18.7987 5.37556 18.6307 5.23324C18.4627 5.09093 18.2548 5.00933 18.0384 5.00075C17.822 4.99217 17.6088 5.05707 17.4309 5.18568C17.253 5.31428 17.12 5.49962 17.052 5.71379L13.866 15.6659L10.914 8.74504C10.8336 8.55838 10.7024 8.40044 10.5365 8.29085C10.3707 8.18126 10.1776 8.12484 9.98127 8.12861C9.78491 8.13239 9.59395 8.19618 9.43212 8.31207C9.27028 8.42796 9.14471 8.59084 9.071 8.78045L7.323 13.3346H4V15.418H7.323C8.146 15.418 8.875 14.9034 9.179 14.1086L10.048 11.8461L13.085 18.9659C13.247 19.344 13.606 19.5846 14 19.5846L14.048 19.5836C14.2495 19.5736 14.4433 19.5003 14.604 19.3733C14.7646 19.2463 14.8846 19.0715 14.948 18.8721L17.862 9.76587L18.841 13.8398C18.9484 14.291 19.1978 14.6916 19.5495 14.9777C19.9012 15.2638 20.3348 15.4188 20.781 15.418H24V13.3346H20.78L18.97 5.78983Z" fill="white"/>
</svg>
