<svg width="43" height="45" viewBox="0 0 43 45" fill="none" xmlns="http://www.w3.org/2000/svg">
<path d="M30.4046 10.4217C30.3111 10.0276 30.0977 9.67601 29.7967 9.41984C29.4957 9.16367 29.1232 9.0168 28.7355 9.00136C28.3478 8.98591 27.9658 9.10273 27.647 9.33422C27.3283 9.5657 27.09 9.89932 26.9681 10.2848L21.2599 28.1986L15.9709 15.7411C15.8269 15.4051 15.5917 15.1208 15.2946 14.9235C14.9975 14.7263 14.6516 14.6247 14.2998 14.6315C13.948 14.6383 13.6058 14.7531 13.3159 14.9617C13.0259 15.1703 12.8009 15.4635 12.6689 15.8048L9.53702 24.0023H3.58331V27.7523H9.53702C11.0116 27.7523 12.3177 26.8261 12.8624 25.3954L14.4193 21.3229L19.8606 34.1386C20.1509 34.8192 20.7941 35.2523 21.5 35.2523L21.586 35.2504C21.9469 35.2325 22.2942 35.1005 22.5821 34.8719C22.8699 34.6433 23.0848 34.3288 23.1985 33.9698L28.4194 17.5786L30.1734 24.9117C30.3658 25.7238 30.8127 26.4449 31.4428 26.9599C32.0729 27.4748 32.8498 27.7538 33.6493 27.7523H39.4166V24.0023H33.6475L30.4046 10.4217Z" fill="#71FF01"/>
<path d="M32.1962 7.11938C32.1027 6.72531 31.8894 6.37371 31.5884 6.11753C31.2873 5.86136 30.9149 5.71449 30.5272 5.69905C30.1395 5.68361 29.7575 5.80043 29.4387 6.03191C29.12 6.2634 28.8817 6.59701 28.7598 6.98251L23.0516 24.8963L17.7626 12.4388C17.6186 12.1028 17.3834 11.8185 17.0863 11.6212C16.7892 11.424 16.4432 11.3224 16.0914 11.3292C15.7396 11.336 15.3975 11.4508 15.1075 11.6594C14.8176 11.868 14.5926 12.1612 14.4605 12.5025L11.3287 20.7H5.375V24.45H11.3287C12.8032 24.45 14.1094 23.5238 14.654 22.0931L16.211 18.0206L21.6523 30.8363C21.9425 31.5169 22.5857 31.95 23.2917 31.95L23.3777 31.9481C23.7386 31.9302 24.0859 31.7982 24.3738 31.5696C24.6616 31.341 24.8765 31.0265 24.9902 30.6675L30.2111 14.2763L31.9651 21.6094C32.1575 22.4215 32.6044 23.1426 33.2345 23.6576C33.8646 24.1725 34.6415 24.4515 35.441 24.45H41.2083V20.7H35.4392L32.1962 7.11938Z" fill="#FF4D00"/>
<path d="M33.9879 10.4217C33.8944 10.0276 33.6811 9.67601 33.3801 9.41984C33.079 9.16367 32.7066 9.0168 32.3189 9.00136C31.9312 8.98591 31.5492 9.10273 31.2304 9.33422C30.9116 9.5657 30.6734 9.89932 30.5515 10.2848L24.8433 28.1986L19.5543 15.7411C19.4103 15.4051 19.1751 15.1208 18.878 14.9235C18.5809 14.7263 18.2349 14.6247 17.8831 14.6315C17.5313 14.6383 17.1892 14.7531 16.8992 14.9617C16.6093 15.1703 16.3843 15.4635 16.2522 15.8048L13.1204 24.0023H7.16669V27.7523H13.1204C14.5949 27.7523 15.9011 26.8261 16.4457 25.3954L18.0027 21.3229L23.444 34.1386C23.7342 34.8192 24.3774 35.2523 25.0834 35.2523L25.1694 35.2504C25.5303 35.2325 25.8776 35.1005 26.1654 34.8719C26.4533 34.6433 26.6682 34.3288 26.7819 33.9698L32.0028 17.5786L33.7568 24.9117C33.9492 25.7238 34.3961 26.4449 35.0262 26.9599C35.6563 27.4748 36.4332 27.7538 37.2326 27.7523H43V24.0023H37.2309L33.9879 10.4217Z" fill="black"/>
</svg>
